<?xml version="1.0" standalone="no"?>
<!DOCTYPE svg PUBLIC "-//W3C//DTD SVG 20010904//EN"
 "http://www.w3.org/TR/2001/REC-SVG-20010904/DTD/svg10.dtd">
<svg version="1.0" xmlns="http://www.w3.org/2000/svg"
 width="1435.000000pt" height="1536.000000pt" viewBox="0 0 1435.000000 1536.000000"
 preserveAspectRatio="xMidYMid meet">
<metadata>
Created by potrace 1.16, written by Peter Selinger 2001-2019
</metadata>
<g transform="translate(0.000000,1536.000000) scale(0.100000,-0.100000)"
fill="#000000" stroke="none">
<path d="M3310 15350 c-58 -5 -134 -17 -170 -25 -132 -33 -359 -141 -561 -266
-249 -155 -309 -174 -534 -166 -82 3 -221 11 -309 17 -521 38 -1246 -103
-1573 -306 -87 -54 -163 -135 -163 -173 0 -89 189 -211 328 -211 414 0 1303
-479 1438 -775 48 -103 177 -262 503 -616 339 -369 484 -613 553 -932 19 -88
22 -134 22 -327 1 -253 -9 -343 -79 -770 -62 -372 -75 -488 -82 -700 -6 -179
-5 -190 25 -340 94 -463 265 -1038 387 -1297 70 -148 85 -199 85 -289 0 -172
-84 -328 -361 -674 -150 -189 -211 -272 -296 -405 -371 -583 -697 -1412 -927
-2355 -71 -288 -130 -588 -152 -760 -21 -174 -15 -417 15 -535 70 -281 245
-617 448 -857 79 -94 234 -228 304 -263 125 -64 327 8 450 160 62 76 137 227
183 370 33 102 50 167 121 475 119 513 362 1132 721 1840 212 418 259 461 333
308 44 -90 86 -254 217 -843 205 -924 295 -1241 429 -1507 120 -237 247 -380
559 -627 336 -266 759 -620 751 -629 -1 -1 -59 25 -128 58 -198 94 -326 121
-476 100 -106 -14 -178 -41 -262 -96 -68 -45 -155 -139 -165 -179 -10 -40 24
-91 150 -223 66 -71 132 -141 146 -156 l25 -28 -195 7 c-359 13 -601 -39 -698
-150 -93 -105 13 -212 447 -453 354 -197 411 -209 1076 -219 408 -6 832 6
1007 28 149 18 220 84 226 208 4 77 -17 121 -70 149 -50 27 -78 59 -78 88 0
74 97 189 224 269 134 83 312 128 511 129 149 0 185 -13 203 -70 19 -62 103
-165 292 -358 187 -190 341 -332 498 -457 138 -111 189 -139 275 -154 83 -14
190 -55 260 -98 89 -54 144 -70 223 -62 89 8 129 -9 212 -93 80 -79 122 -112
142 -112 54 0 210 176 367 415 179 271 202 305 333 480 219 293 414 515 454
515 8 0 28 12 45 26 175 147 477 1151 590 1964 27 193 36 302 71 850 46 730
51 828 51 1105 0 324 -13 446 -91 835 -123 611 -293 1204 -542 1890 -55 151
-129 361 -164 465 l-64 190 48 3 c110 8 967 -112 1749 -243 562 -95 597 -99
903 -99 286 0 383 10 541 60 130 41 239 125 239 184 0 37 -84 205 -160 320
-73 111 -252 294 -380 391 -342 257 -807 475 -1655 775 -601 213 -785 247
-1560 289 -659 35 -907 67 -1147 145 -210 69 -333 140 -678 390 -325 237 -486
348 -826 573 -170 113 -347 233 -393 267 -115 85 -244 211 -296 289 -86 130
-110 228 -120 486 -13 351 -51 625 -111 805 -119 356 -460 903 -739 1185 -126
127 -229 210 -425 340 -263 174 -537 312 -707 356 -138 35 -406 65 -788 89
-230 15 -925 21 -1055 10z"/>
</g>
</svg>
